<svg xmlns="http://www.w3.org/2000/svg" viewBox="0 0 512 512">
  <rect width="512" height="512" rx="96" fill="#17463a"/>
  <path fill="#fff" d="M256 103c-46 0-83 37-83 83v68c0 46 37 83 83 83s83-37 83-83v-68c0-46-37-83-83-83Zm-32 83c0-18 14-32 32-32s32 14 32 32v68c0 18-14 32-32 32s-32-14-32-32v-68Z"/>
  <path fill="#f0c66b" d="M138 242a24 24 0 0 1 48 0c0 39 31 70 70 70s70-31 70-70a24 24 0 0 1 48 0c0 57-40 105-94 117v34h38a24 24 0 0 1 0 48H194a24 24 0 0 1 0-48h38v-34c-54-12-94-60-94-117Z"/>
</svg>
